<?xml version="1.0" encoding="UTF-8" standalone="no"?>
<!-- Created with Inkscape (http://www.inkscape.org/) -->

<svg
   xmlns:dc="http://purl.org/dc/elements/1.1/"
   xmlns:cc="http://creativecommons.org/ns#"
   xmlns:rdf="http://www.w3.org/1999/02/22-rdf-syntax-ns#"
   xmlns:svg="http://www.w3.org/2000/svg"
   xmlns="http://www.w3.org/2000/svg"
   xmlns:sodipodi="http://sodipodi.sourceforge.net/DTD/sodipodi-0.dtd"
   xmlns:inkscape="http://www.inkscape.org/namespaces/inkscape"
   width="210mm"
   height="297mm"
   viewBox="0 0 744.09448819 1052.3622047"
   id="svg2"
   version="1.1"
   inkscape:version="0.91 r13725"
   sodipodi:docname="drawing.svg">
  <defs
     id="defs4" />
  <sodipodi:namedview
     id="base"
     pagecolor="#ffffff"
     bordercolor="#666666"
     borderopacity="1.0"
     inkscape:pageopacity="0.0"
     inkscape:pageshadow="2"
     inkscape:zoom="0.35"
     inkscape:cx="95.942625"
     inkscape:cy="658.65858"
     inkscape:document-units="px"
     inkscape:current-layer="g4186"
     showgrid="false"
     showguides="false"
     inkscape:window-width="1366"
     inkscape:window-height="643"
     inkscape:window-x="0"
     inkscape:window-y="24"
     inkscape:window-maximized="1" />
  <metadata
     id="metadata7">
    <rdf:RDF>
      <cc:Work
         rdf:about="">
        <dc:format>image/svg+xml</dc:format>
        <dc:type
           rdf:resource="http://purl.org/dc/dcmitype/StillImage" />
        <dc:title />
      </cc:Work>
    </rdf:RDF>
  </metadata>
  <g
     inkscape:label="Layer 1"
     inkscape:groupmode="layer"
     id="layer1">
    <g
       id="g4186"
       transform="matrix(-1,0,0,1,847.70128,0)">
      <g
         transform="matrix(0.02103719,0.99977869,-0.99977869,0.02103719,585.7675,49.116957)"
         id="g4157">
        <path
           style="fill:#99584e;fill-opacity:1;fill-rule:evenodd;stroke:none;stroke-width:1px;stroke-linecap:butt;stroke-linejoin:miter;stroke-opacity:1"
           d="M 145.65846,291.3731 C 587.08974,252.8498 394.06295,-51.576402 644.11335,289.99136 463.04231,-137.04635 320.22918,105.40304 145.65846,291.3731 Z"
           id="path4136"
           inkscape:connector-curvature="0"
           sodipodi:nodetypes="ccc" />
        <path
           sodipodi:nodetypes="ccc"
           inkscape:connector-curvature="0"
           id="path4155"
           d="M 113.31327,295.3731 C 585.16063,254.19542 378.83365,-71.206754 646.11335,293.89615 452.56592,-162.56586 299.91249,96.589089 113.31327,295.3731 Z"
           style="fill:#db584e;fill-opacity:1;fill-rule:evenodd;stroke:none;stroke-width:1px;stroke-linecap:butt;stroke-linejoin:miter;stroke-opacity:1" />
      </g>
      <path
         sodipodi:nodetypes="zzz"
         inkscape:connector-curvature="0"
         id="path4182"
         d="m 297.14286,178.79077 c 0,0 258.21428,210.35715 233.57142,247.85715 -24.64285,37.5 -233.57142,-247.85715 -233.57142,-247.85715 z"
         style="fill:#ffffff;fill-opacity:1;fill-rule:evenodd;stroke:none;stroke-width:1px;stroke-linecap:butt;stroke-linejoin:miter;stroke-opacity:1" />
      <path
         style="fill:#7a413b;fill-opacity:1;fill-rule:evenodd;stroke:none;stroke-width:1px;stroke-linecap:butt;stroke-linejoin:miter;stroke-opacity:1"
         d="m 297.14286,178.79077 c 0,0 258.21428,210.35715 233.57142,247.85715 15.40791,-35.6134 -233.57142,-247.85715 -233.57142,-247.85715 z"
         id="path4184"
         inkscape:connector-curvature="0"
         sodipodi:nodetypes="zcz" />
      <path
         style="fill:#4e82ff;fill-opacity:1;fill-rule:evenodd;stroke:none;stroke-width:1px;stroke-linecap:butt;stroke-linejoin:miter;stroke-opacity:1"
         d="m 342.85715,227.61927 c 0,0 157.85197,128.59588 142.78726,151.52044 C 470.5797,402.06427 342.85715,227.61927 342.85715,227.61927 Z"
         id="path4193"
         inkscape:connector-curvature="0"
         sodipodi:nodetypes="zzz" />
      <path
         style="fill:#4e82ff;fill-rule:evenodd;stroke:none;stroke-width:1px;stroke-linecap:butt;stroke-linejoin:miter;stroke-opacity:1;fill-opacity:1"
         d="m 368.59009,222.08324 c 0,0 24.3203,31.68623 40.96514,29.37996 6.93633,-0.96108 15.37603,-9.80159 13.09918,-16.4237 -6.02544,-17.52478 -54.06432,-12.95626 -54.06432,-12.95626 z"
         id="path4199"
         inkscape:connector-curvature="0"
         sodipodi:nodetypes="cssc" />
      <path
         style="fill:#4e82ff;fill-rule:evenodd;stroke:none;stroke-width:1px;stroke-linecap:butt;stroke-linejoin:miter;stroke-opacity:1;fill-opacity:1"
         d="m 465.12704,237.29376 c 5.72564,-2.05797 10.74017,-11.52224 7.47116,-16.65369 -7.59949,-11.92914 -42.42787,-0.62164 -42.42787,-0.62164 0,0 22.72533,21.67165 34.95671,17.27533 z"
         id="path4201"
         inkscape:connector-curvature="0"
         sodipodi:nodetypes="sscs" />
      <path
         style="fill:#4e82ff;fill-rule:evenodd;stroke:none;stroke-width:1px;stroke-linecap:butt;stroke-linejoin:miter;stroke-opacity:1;fill-opacity:1"
         d="m 450.85657,281.19663 c 8.7296,-1.85543 17.10741,-16.15342 12.39449,-23.73213 -7.23816,-11.63948 -41.10849,0.95333 -41.10849,0.95333 0,0 16.76362,25.31877 28.714,22.7788 z"
         id="path4203"
         inkscape:connector-curvature="0"
         sodipodi:nodetypes="sscs" />
      <path
         style="fill:#4e82ff;fill-rule:evenodd;stroke:none;stroke-width:1px;stroke-linecap:butt;stroke-linejoin:miter;stroke-opacity:1;fill-opacity:1"
         d="m 525.27352,226.63198 c 5.75062,6.03117 3.88435,21.02282 -3.57228,24.74347 -12.87656,6.42503 -37.84993,-20.76437 -37.84993,-20.76437 0,0 31.85022,-14.01806 41.42221,-3.9791 z"
         id="path4205"
         inkscape:connector-curvature="0"
         sodipodi:nodetypes="sscs" />
      <path
         style="fill:#4e82ff;fill-rule:evenodd;stroke:none;stroke-width:1px;stroke-linecap:butt;stroke-linejoin:miter;stroke-opacity:1;fill-opacity:1"
         d="m 481.87185,322.45126 c 7.74323,-0.68802 13.94275,-13.11743 11.27001,-20.41727 -4.94495,-13.5058 -40.31347,-15.38047 -40.31347,-15.38047 0,0 13.73786,37.15769 29.04346,35.79774 z"
         id="path4207"
         inkscape:connector-curvature="0"
         sodipodi:nodetypes="sscs" />
      <path
         style="fill:#4e82ff;fill-rule:evenodd;stroke:none;stroke-width:1px;stroke-linecap:butt;stroke-linejoin:miter;stroke-opacity:1;fill-opacity:1"
         d="m 486.53856,263.48561 c 5.10194,-1.21015 9.90755,-9.18279 7.48732,-13.83433 -5.07435,-9.75257 -32.76252,-3.79106 -32.76252,-3.79106 0,0 15.28123,19.99593 25.2752,17.62539 z"
         id="path4209"
         inkscape:connector-curvature="0"
         sodipodi:nodetypes="sscs" />
      <path
         style="fill:#4e82ff;fill-rule:evenodd;stroke:none;stroke-width:1px;stroke-linecap:butt;stroke-linejoin:miter;stroke-opacity:1;fill-opacity:1"
         d="m 570.05667,282.73919 c 10.48723,-1.30231 20.97804,-18.38647 15.70096,-27.54236 -7.06396,-12.25618 -42.4374,-0.29571 -42.4374,-0.29571 0,0 13.96856,29.4236 26.73644,27.83807 z"
         id="path4211"
         inkscape:connector-curvature="0"
         sodipodi:nodetypes="sscs" />
      <path
         style="fill:#4e82ff;fill-rule:evenodd;stroke:none;stroke-width:1px;stroke-linecap:butt;stroke-linejoin:miter;stroke-opacity:1;fill-opacity:1"
         d="m 523.80843,286.24186 c 6.27119,-2.10628 10.14281,-13.3872 6.3458,-18.80448 -6.7296,-9.60126 -35.16546,-0.79714 -35.16546,-0.79714 0,0 17.80627,23.30065 28.81966,19.60162 z"
         id="path4213"
         inkscape:connector-curvature="0"
         sodipodi:nodetypes="sscs" />
      <path
         style="fill:#4e82ff;fill-rule:evenodd;stroke:none;stroke-width:1px;stroke-linecap:butt;stroke-linejoin:miter;stroke-opacity:1;fill-opacity:1"
         d="m 637.60045,283.11651 c 11.98647,-2.96009 19.24118,-24.47491 12.54768,-34.8496 -10.05252,-15.58102 -55.45267,-4.40335 -55.45267,-4.40335 0,0 24.08641,43.90027 42.90499,39.25295 z"
         id="path4215"
         inkscape:connector-curvature="0"
         sodipodi:nodetypes="sscs" />
      <path
         style="fill:#4e82ff;fill-rule:evenodd;stroke:none;stroke-width:1px;stroke-linecap:butt;stroke-linejoin:miter;stroke-opacity:1;fill-opacity:1"
         d="m 635.27197,304.01103 c 6.19346,14.38133 -12.40284,38.08834 -28.05569,37.6764 -17.80648,-0.46863 -29.61722,-44.47957 -29.61722,-44.47957 0,0 50.01623,-10.97579 57.67291,6.80317 z"
         id="path4217"
         inkscape:connector-curvature="0"
         sodipodi:nodetypes="sscs" />
      <path
         style="fill:#4e82ff;fill-rule:evenodd;stroke:none;stroke-width:1px;stroke-linecap:butt;stroke-linejoin:miter;stroke-opacity:1;fill-opacity:1"
         d="m 543.92515,344.14638 c 11.66126,-0.59407 24.44753,-17.29441 20.61204,-28.32287 -6.97651,-20.06005 -61.36825,-17.13571 -61.36825,-17.13571 0,0 20.43135,46.49401 40.75621,45.45858 z"
         id="path4219"
         inkscape:connector-curvature="0"
         sodipodi:nodetypes="aaca" />
      <path
         sodipodi:nodetypes="cssc"
         inkscape:connector-curvature="0"
         id="path4178"
         d="m 391.86075,225.28788 c 0,0 10.50851,17.01225 18.91509,16.70624 3.50324,-0.12753 8.15411,-4.10323 7.35536,-7.51659 -2.11377,-9.0331 -26.27045,-9.18965 -26.27045,-9.18965 z"
         style="fill:#ffffff;fill-opacity:1;fill-rule:evenodd;stroke:none;stroke-width:1px;stroke-linecap:butt;stroke-linejoin:miter;stroke-opacity:1" />
      <path
         sodipodi:nodetypes="sscs"
         inkscape:connector-curvature="0"
         id="path4180"
         d="m 465.82065,228.82025 c 2.88639,-0.89668 5.58113,-5.4845 4.07049,-8.10236 -3.51179,-6.08578 -21.04295,-1.23238 -21.04295,-1.23238 0,0 10.80643,11.25024 16.97246,9.33474 z"
         style="fill:#ffffff;fill-opacity:1;fill-rule:evenodd;stroke:none;stroke-width:1px;stroke-linecap:butt;stroke-linejoin:miter;stroke-opacity:1" />
      <path
         sodipodi:nodetypes="sscs"
         inkscape:connector-curvature="0"
         id="path4183"
         d="m 454.51521,271.40102 c 5.1379,-1.09203 10.06875,-9.50727 7.29491,-13.9678 -4.2601,-6.85054 -24.19484,0.56109 -24.19484,0.56109 0,0 9.86641,14.90163 16.89993,13.40671 z"
         style="fill:#ffffff;fill-opacity:1;fill-rule:evenodd;stroke:none;stroke-width:1px;stroke-linecap:butt;stroke-linejoin:miter;stroke-opacity:1" />
      <path
         sodipodi:nodetypes="sscs"
         inkscape:connector-curvature="0"
         id="path4185"
         d="m 487.85548,256.67935 c 2.7246,-0.34907 5.66775,-4.23744 4.66344,-6.79414 -2.10568,-5.36046 -16.85867,-3.78168 -16.85867,-3.78168 0,0 6.85811,11.25964 12.19523,10.57582 z"
         style="fill:#ffffff;fill-opacity:1;fill-rule:evenodd;stroke:none;stroke-width:1px;stroke-linecap:butt;stroke-linejoin:miter;stroke-opacity:1" />
      <path
         sodipodi:nodetypes="sscs"
         inkscape:connector-curvature="0"
         id="path4187"
         d="m 522.87948,226.90845 c 3.01373,3.16076 2.03568,11.01746 -1.87213,12.96734 -6.74824,3.36718 -19.83606,-10.882 -19.83606,-10.882 0,0 16.69178,-7.34647 21.70819,-2.08534 z"
         style="fill:#ffffff;fill-opacity:1;fill-rule:evenodd;stroke:none;stroke-width:1px;stroke-linecap:butt;stroke-linejoin:miter;stroke-opacity:1" />
      <path
         sodipodi:nodetypes="sscs"
         inkscape:connector-curvature="0"
         id="path4189"
         d="m 524.78127,279.42023 c 3.8957,-1.30843 6.30076,-8.31619 3.94204,-11.68143 -4.18045,-5.96435 -21.84494,-0.49519 -21.84494,-0.49519 0,0 11.06133,14.47447 17.9029,12.17662 z"
         style="fill:#ffffff;fill-opacity:1;fill-rule:evenodd;stroke:none;stroke-width:1px;stroke-linecap:butt;stroke-linejoin:miter;stroke-opacity:1" />
      <path
         sodipodi:nodetypes="aaca"
         inkscape:connector-curvature="0"
         id="path4191"
         d="m 550.06027,327.79292 c 5.66467,0.11152 12.42507,-7.53428 10.94603,-13.00358 -2.6903,-9.94833 -29.11733,-10.3943 -29.11733,-10.3943 0,0 8.29813,23.20347 18.1713,23.39788 z"
         style="fill:#ffffff;fill-opacity:1;fill-rule:evenodd;stroke:none;stroke-width:1px;stroke-linecap:butt;stroke-linejoin:miter;stroke-opacity:1" />
      <path
         sodipodi:nodetypes="sscs"
         inkscape:connector-curvature="0"
         id="path4194"
         d="m 631.6264,303.97267 c 3.50855,8.51597 -7.64965,22.28566 -16.85188,21.89748 -10.46832,-0.44161 -17.00445,-26.43629 -17.00445,-26.43629 0,0 29.51885,-5.98908 33.85633,4.53881 z"
         style="fill:#ffffff;fill-opacity:1;fill-rule:evenodd;stroke:none;stroke-width:1px;stroke-linecap:butt;stroke-linejoin:miter;stroke-opacity:1" />
      <path
         sodipodi:nodetypes="sscs"
         inkscape:connector-curvature="0"
         id="path4196"
         d="m 575.65136,267.87244 c 4.89126,-0.60739 9.78418,-8.57547 7.32295,-12.84579 -3.29464,-5.71629 -19.79286,-0.13791 -19.79286,-0.13791 0,0 6.51496,13.7232 12.46991,12.9837 z"
         style="fill:#ffffff;fill-opacity:1;fill-rule:evenodd;stroke:none;stroke-width:1px;stroke-linecap:butt;stroke-linejoin:miter;stroke-opacity:1" />
      <path
         sodipodi:nodetypes="sscs"
         inkscape:connector-curvature="0"
         id="path4198"
         d="m 640.9946,267.36471 c 6.48644,-1.60184 10.4123,-13.24451 6.79013,-18.85874 -5.43988,-8.43161 -30.00801,-2.38285 -30.00801,-2.38285 0,0 13.03428,23.75647 23.21788,21.24159 z"
         style="fill:#ffffff;fill-opacity:1;fill-rule:evenodd;stroke:none;stroke-width:1px;stroke-linecap:butt;stroke-linejoin:miter;stroke-opacity:1" />
      <path
         sodipodi:nodetypes="sscs"
         inkscape:connector-curvature="0"
         id="path4200"
         d="m 484.70707,314.53822 c 4.4954,-2.8e-4 8.70211,-6.84274 7.53591,-11.18425 -2.15762,-8.03244 -22.43453,-10.92118 -22.43453,-10.92118 0,0 6.01281,22.106 14.89862,22.10543 z"
         style="fill:#ffffff;fill-opacity:1;fill-rule:evenodd;stroke:none;stroke-width:1px;stroke-linecap:butt;stroke-linejoin:miter;stroke-opacity:1" />
    </g>
  </g>
</svg>
